<?xml version="1.0" encoding="utf-8"?>
<!-- Generator: Adobe Illustrator 24.2.3, SVG Export Plug-In . SVG Version: 6.00 Build 0)  -->
<svg version="1.1" id="圖層_1" xmlns="http://www.w3.org/2000/svg" xmlns:xlink="http://www.w3.org/1999/xlink" x="0px" y="0px"
	 viewBox="0 0 472 130" style="enable-background:new 0 0 472 130;" xml:space="preserve">
<style type="text/css">
	.st0{fill:#C2AC97;}
	.st1{fill:#FFFFFF;}
	.st2{enable-background:new    ;}
</style>
<g id="Page-1">
	<g id="logo">
		<path id="Path" class="st0" d="M67.7,0L52.8,26c32.9,11.1,55.1,42.1,55.1,76.8c0,4.7-0.4,9.4-1.2,14.1h0.3
			c12.2-20.4,14.8-45,7.3-67.5C106.6,27,89.6,8.9,67.7,0z"/>
		<path id="Path_1_" class="st1" d="M46.5,36.4L29.9,65.1c1.4,0.6,2.8,1.2,4.3,1.7c9.8,3.4,20.3,3.5,30.2,0.4
			c-11.7,9.1-26.8,12.6-41.3,9.7L0,116.9h101.8c0.2-2,0.2-4.1,0.2-6.2C102,76.4,79.4,46.1,46.5,36.4z"/>
		<g id="Group" transform="translate(149.760000, 22.330000)">
			<g class="st2">
				<path class="st1" d="M1.2,43.9c0.5-0.1,0.9-0.3,1.2-0.8c0.3-0.4,0.6-0.9,0.9-1.5l11-23.1c0.3-0.5,0.5-1,0.7-1.4
					c0.2-0.4,0.3-0.8,0.3-1.1c0-0.4-0.1-0.7-0.4-0.8c-0.3-0.2-0.6-0.3-0.9-0.4v-1.1h10v1.1c-0.3,0.1-0.6,0.2-0.8,0.3
					c-0.3,0.1-0.4,0.4-0.4,0.9c0,0.3,0.1,0.6,0.2,1c0.1,0.3,0.3,0.7,0.6,1.2l12.4,24.2c0.2,0.4,0.5,0.8,0.8,1
					c0.3,0.2,0.7,0.4,1.2,0.6V45H27.6v-1.1c0.2,0,0.4-0.1,0.6-0.2c0.2-0.1,0.4-0.3,0.4-0.5c0-0.4-0.2-0.9-0.5-1.5l-2.3-4.4H11.3
					l-2.1,4.2c-0.4,0.8-0.6,1.4-0.6,1.8c0,0.4,0.4,0.7,1.1,0.7V45H1.2V43.9z M23.6,32.9l-5-11l-5.6,11H23.6z"/>
				<path class="st1" d="M64.7,13.8c1.9,0,3.6,0.2,5.2,0.5c1.5,0.3,2.9,0.9,4,1.6c1.1,0.7,2,1.7,2.6,2.9c0.6,1.2,0.9,2.6,0.9,4.3
					c0,2.6-0.8,4.6-2.3,6c-1.5,1.4-3.6,2.3-6.2,2.8l7.9,11.3c0.3,0.4,0.6,0.6,1,0.7c0.4,0.1,0.7,0.1,1,0.1V45H67.5v-1.1
					c0.4,0,0.7-0.1,0.9-0.2c0.3-0.1,0.4-0.3,0.4-0.5c0-0.2-0.1-0.4-0.2-0.7c-0.2-0.3-0.4-0.6-0.7-1l-6.5-9.3h-8.5v10.6
					c0,0.4,0.1,0.6,0.4,0.8c0.3,0.2,0.7,0.3,1.4,0.3V45H44.4v-1.1c1.1,0,1.7-0.4,1.7-1.1v-27c0-0.7-0.6-1.1-1.7-1.1v-1.1H64.7z
					 M63.1,27.7c1.4,0,2.6-0.1,3.6-0.3c1-0.2,1.7-0.5,2.3-0.9c0.6-0.4,1-0.9,1.2-1.4c0.2-0.5,0.4-1.1,0.4-1.8c0-0.6-0.1-1.2-0.4-1.8
					c-0.2-0.5-0.6-1-1.2-1.4c-0.6-0.4-1.3-0.7-2.3-0.9c-1-0.2-2.1-0.3-3.6-0.3H52.9v8.8H63.1z"/>
				<path class="st1" d="M117,20.2c0-0.4-0.2-0.8-0.5-1c-0.3-0.2-0.9-0.3-1.8-0.3H95.5v7.4h11.6c0.8,0,1.4-0.1,1.8-0.3
					c0.4-0.2,0.7-0.8,0.7-1.7h1.1v9.3h-1.1c0-0.9-0.2-1.5-0.7-1.8c-0.4-0.3-1-0.4-1.8-0.4H95.5v8.2h19.8c0.6,0,1.1-0.1,1.5-0.4
					c0.4-0.3,0.6-0.7,0.6-1.1h1.1v8.1h-1.1c0-0.6-0.2-0.9-0.6-1c-0.4-0.1-0.9-0.1-1.5-0.1H87.6v-1.1c0.3,0,0.5-0.1,0.7-0.3
					c0.2-0.2,0.3-0.4,0.3-0.8v-27c0-0.4-0.1-0.6-0.3-0.8c-0.2-0.2-0.5-0.3-0.7-0.3v-1.1h27.1c0.8,0,1.4-0.1,1.8-0.4
					c0.3-0.3,0.5-0.6,0.5-1h1.1v7.8H117z"/>
				<path class="st1" d="M129.5,35.2l0.6,0.3c0,0.4,0.1,0.7,0.2,1c0.3,0.5,0.8,0.9,1.6,1.4s1.7,0.9,2.8,1.2c1,0.4,2.1,0.6,3.3,0.9
					c1.1,0.2,2.2,0.3,3.1,0.3c0.7,0,1.5,0,2.6-0.1c1.1-0.1,2.1-0.3,3.1-0.6c1-0.3,1.9-0.8,2.7-1.3c0.8-0.6,1.1-1.3,1.1-2.2
					s-0.3-1.6-1-2c-0.7-0.4-1.6-0.8-2.7-1c-1.1-0.2-2.4-0.3-3.9-0.4c-1.4-0.1-2.9-0.1-4.4-0.3s-3-0.3-4.4-0.6
					c-1.4-0.3-2.7-0.7-3.9-1.4c-1.1-0.7-2-1.5-2.7-2.7c-0.7-1.1-1-2.6-1-4.4c0-1.2,0.3-2.4,0.9-3.6c0.6-1.2,1.5-2.2,2.6-3.1
					c1.2-0.9,2.7-1.7,4.5-2.2c1.8-0.6,4-0.9,6.4-0.9c2.1,0,3.9,0.2,5.5,0.5c1.5,0.3,2.9,0.7,4,1c1.1,0.4,2.1,0.7,2.9,1
					c0.8,0.3,1.4,0.5,1.9,0.5c0.6,0,1-0.1,1.2-0.4l0.7,0.5l-4.1,7.4l-0.6-0.2c-0.1-0.6-0.2-1-0.5-1.4c-0.3-0.5-0.8-0.9-1.6-1.4
					c-0.7-0.5-1.6-0.9-2.6-1.2c-1-0.4-2.1-0.6-3.2-0.9c-1.1-0.2-2.3-0.3-3.4-0.3c-0.9,0-1.8,0.1-2.7,0.2c-0.9,0.1-1.8,0.3-2.5,0.6
					c-0.8,0.3-1.4,0.6-1.9,1.1c-0.5,0.5-0.7,1-0.7,1.7c0,1,0.3,1.7,1,2.1c0.7,0.5,1.6,0.8,2.7,1.1c1.1,0.2,2.4,0.4,3.9,0.5
					c1.4,0.1,2.9,0.2,4.4,0.3c1.5,0.1,3,0.3,4.4,0.6c1.4,0.3,2.7,0.8,3.9,1.4c1.1,0.7,2,1.5,2.7,2.6c0.7,1.1,1,2.6,1,4.3
					c0,2.1-0.5,3.7-1.6,5c-1.1,1.3-2.4,2.3-4.1,3.1c-1.6,0.8-3.4,1.3-5.3,1.5s-3.6,0.4-5.3,0.4c-2.3,0-4.1-0.1-5.7-0.4
					c-1.5-0.3-2.8-0.6-3.8-1c-1-0.4-1.8-0.7-2.4-1c-0.6-0.3-1.1-0.4-1.5-0.4c-0.3,0-0.5,0.2-0.8,0.5l-0.8-0.5L129.5,35.2z"/>
			</g>
			<g transform="translate(0.000000, 59.000000)">
				<g class="st2">
					<path class="st1" d="M16.5,34.3c0,0.5,0.3,0.8,1,0.8v0.8h-7v-0.8c0.2,0,0.4-0.1,0.6-0.2c0.2-0.1,0.3-0.3,0.3-0.6V16.2H3.8
						c-0.3,0-0.5,0.1-0.8,0.2c-0.3,0.2-0.4,0.4-0.4,0.9H1.8v-6.4h0.8c0,0.4,0.1,0.7,0.4,0.9C3.2,11.9,3.5,12,3.8,12H24
						c0.3,0,0.5-0.1,0.8-0.2c0.3-0.2,0.4-0.4,0.4-0.9H26v6.4h-0.8c0-0.4-0.1-0.7-0.4-0.9c-0.3-0.2-0.5-0.2-0.8-0.2h-7.5V34.3z"/>
					<path class="st1" d="M54.3,16.9c0-0.3-0.1-0.6-0.4-0.8c-0.3-0.2-0.7-0.3-1.3-0.3H37.8v5.7h8.9c0.6,0,1.1-0.1,1.4-0.3
						c0.3-0.2,0.5-0.6,0.5-1.3h0.8v7.1h-0.8c0-0.7-0.2-1.1-0.5-1.3c-0.3-0.2-0.8-0.3-1.4-0.3h-8.9v6.3H53c0.5,0,0.8-0.1,1.1-0.3
						c0.3-0.2,0.4-0.5,0.4-0.9h0.8v6.2h-0.8c0-0.5-0.1-0.7-0.4-0.8c-0.3-0.1-0.7-0.1-1.1-0.1H31.8v-0.8c0.2,0,0.4-0.1,0.6-0.2
						c0.2-0.1,0.3-0.3,0.3-0.6V13.6c0-0.3-0.1-0.5-0.3-0.6c-0.2-0.1-0.4-0.2-0.6-0.2V12h20.8c0.6,0,1.1-0.1,1.3-0.3
						c0.3-0.2,0.4-0.5,0.4-0.8h0.8v6H54.3z"/>
					<path class="st1" d="M87.5,32.7c-0.1,0-0.2,0-0.3,0c-0.1,0-0.2,0-0.3,0c-0.2,0-0.6,0.2-1.3,0.5c-0.7,0.4-1.5,0.8-2.6,1.2
						c-1,0.5-2.2,0.9-3.6,1.2c-1.3,0.3-2.7,0.5-4.2,0.5c-1.9,0-3.8-0.2-5.5-0.7c-1.8-0.5-3.3-1.2-4.7-2.3c-1.4-1-2.4-2.3-3.2-3.8
						c-0.8-1.5-1.2-3.3-1.2-5.3c0-2,0.4-3.8,1.2-5.3c0.8-1.5,1.9-2.8,3.2-3.9c1.4-1,2.9-1.8,4.7-2.3c1.8-0.5,3.6-0.8,5.5-0.8
						c1.5,0,3,0.1,4.2,0.4s2.4,0.5,3.3,0.8c0.9,0.3,1.7,0.5,2.2,0.8c0.5,0.2,0.9,0.4,1,0.4c0.2,0,0.3-0.1,0.4-0.2
						c0.1-0.2,0.2-0.3,0.3-0.4l0.7,0.5l-3.6,5.5l-0.5-0.3c0-0.1,0-0.2,0-0.3c0-0.1,0-0.2-0.1-0.3c-0.1-0.3-0.4-0.7-0.9-1
						c-0.5-0.3-1.2-0.7-2-0.9c-0.8-0.3-1.7-0.5-2.6-0.7c-0.9-0.2-1.7-0.3-2.5-0.3c-1.3,0-2.5,0.2-3.7,0.5c-1.2,0.4-2.2,0.9-3.1,1.6
						s-1.6,1.6-2.1,2.6c-0.5,1-0.8,2.2-0.8,3.5c0,1.3,0.3,2.5,0.8,3.5c0.5,1,1.2,1.9,2.1,2.6s1.9,1.2,3.1,1.6
						c1.2,0.4,2.4,0.5,3.7,0.5c1,0,2-0.1,3.1-0.3s2-0.5,2.9-0.9c0.9-0.3,1.6-0.7,2.2-1.2c0.6-0.4,0.9-0.9,0.9-1.3
						c0-0.2-0.1-0.4-0.2-0.5l0.6-0.4l3,4.8L87.5,32.7z"/>
					<path class="st1" d="M116.3,13.6c0-0.5-0.3-0.8-1-0.8V12h7v0.8c-0.2,0-0.4,0.1-0.6,0.2c-0.2,0.1-0.2,0.3-0.2,0.6v20.7
						c0,0.3,0.1,0.5,0.2,0.6s0.4,0.2,0.6,0.2v0.8h-7v-0.8c0.7,0,1-0.3,1-0.8v-8.6h-14.7v8.6c0,0.3,0.1,0.5,0.3,0.6s0.4,0.2,0.6,0.2
						v0.8h-6.9v-0.8c0.6,0,0.9-0.3,0.9-0.8V13.6c0-0.5-0.3-0.8-0.9-0.8V12h6.9v0.8c-0.2,0-0.4,0.1-0.6,0.2c-0.2,0.1-0.3,0.3-0.3,0.6
						v7.7h14.7V13.6z"/>
					<path class="st1" d="M130.8,35.1c0.6,0,0.9-0.3,0.9-0.8V13.6c0-0.5-0.3-0.8-0.9-0.8V12h7.8v0.8c-0.2,0-0.4,0.2-0.4,0.5
						c0,0.2,0.3,0.7,0.9,1.3l13.1,13.6V13.6c0-0.5-0.4-0.8-1.2-0.8V12h6.9v0.8c-0.6,0-0.9,0.3-0.9,0.8v20.7c0,0.5,0.3,0.8,0.9,0.8
						v0.8h-7.4v-0.8c0.4,0,0.6-0.1,0.6-0.4c0-0.2-0.2-0.6-0.7-1l-13.9-14.5v15.1c0,0.5,0.3,0.8,1,0.8v0.8h-6.7V35.1z"/>
					<path class="st1" d="M179.9,11.7c1.7,0,3.4,0.3,5.1,0.8c1.7,0.5,3.3,1.3,4.7,2.3c1.4,1,2.6,2.3,3.5,3.8
						c0.9,1.5,1.4,3.4,1.4,5.4c0,2.1-0.5,3.9-1.4,5.4c-0.9,1.5-2.1,2.8-3.5,3.8c-1.4,1-3,1.7-4.7,2.2s-3.4,0.7-5.1,0.7
						c-1.7,0-3.4-0.2-5.1-0.7s-3.3-1.2-4.7-2.2s-2.6-2.3-3.5-3.8c-0.9-1.5-1.4-3.4-1.4-5.4c0-2.1,0.5-3.9,1.4-5.4
						c0.9-1.5,2.1-2.8,3.5-3.8s3-1.8,4.7-2.3C176.5,11.9,178.2,11.7,179.9,11.7z M179.9,15.9c-1.2,0-2.3,0.2-3.5,0.5
						c-1.2,0.4-2.2,0.9-3.1,1.6c-0.9,0.7-1.7,1.5-2.3,2.5s-0.9,2.1-0.9,3.4s0.3,2.4,0.9,3.4s1.3,1.8,2.3,2.5c0.9,0.7,2,1.2,3.1,1.6
						c1.2,0.4,2.3,0.5,3.5,0.5c1.2,0,2.3-0.2,3.5-0.5c1.2-0.4,2.2-0.9,3.1-1.6c0.9-0.7,1.7-1.5,2.3-2.5c0.6-1,0.9-2.1,0.9-3.4
						s-0.3-2.4-0.9-3.4c-0.6-1-1.3-1.8-2.3-2.5c-0.9-0.7-2-1.2-3.1-1.6C182.2,16.1,181,15.9,179.9,15.9z"/>
					<path class="st1" d="M223.8,36.8c0-0.5-0.1-0.7-0.4-0.8c-0.3-0.1-0.7-0.1-1.1-0.1h-21.7v-0.8c0.9,0,1.4-0.3,1.4-0.8V13.6
						c0-0.5-0.5-0.8-1.4-0.8V12h7.8v0.8c-0.9,0-1.3,0.3-1.3,0.8v18.1h15.1c0.5,0,0.8-0.1,1.1-0.3c0.3-0.2,0.4-0.5,0.4-0.9h0.8v6.2
						H223.8z"/>
					<path class="st1" d="M243.2,11.7c1.7,0,3.4,0.3,5.1,0.8c1.7,0.5,3.3,1.3,4.7,2.3c1.4,1,2.6,2.3,3.5,3.8
						c0.9,1.5,1.4,3.4,1.4,5.4c0,2.1-0.5,3.9-1.4,5.4c-0.9,1.5-2.1,2.8-3.5,3.8c-1.4,1-3,1.7-4.7,2.2s-3.4,0.7-5.1,0.7
						c-1.7,0-3.4-0.2-5.1-0.7s-3.3-1.2-4.7-2.2s-2.6-2.3-3.5-3.8c-0.9-1.5-1.4-3.4-1.4-5.4c0-2.1,0.5-3.9,1.4-5.4
						c0.9-1.5,2.1-2.8,3.5-3.8s3-1.8,4.7-2.3C239.8,11.9,241.5,11.7,243.2,11.7z M243.2,15.9c-1.2,0-2.3,0.2-3.5,0.5
						c-1.2,0.4-2.2,0.9-3.1,1.6c-0.9,0.7-1.7,1.5-2.3,2.5s-0.9,2.1-0.9,3.4s0.3,2.4,0.9,3.4s1.3,1.8,2.3,2.5c0.9,0.7,2,1.2,3.1,1.6
						c1.2,0.4,2.3,0.5,3.5,0.5c1.2,0,2.3-0.2,3.5-0.5c1.2-0.4,2.2-0.9,3.1-1.6c0.9-0.7,1.7-1.5,2.3-2.5c0.6-1,0.9-2.1,0.9-3.4
						s-0.3-2.4-0.9-3.4c-0.6-1-1.3-1.8-2.3-2.5c-0.9-0.7-2-1.2-3.1-1.6C245.5,16.1,244.3,15.9,243.2,15.9z"/>
					<path class="st1" d="M286.7,19.3l-0.9-0.3c0.1-0.2,0.1-0.4,0.1-0.5c0-0.5-0.3-0.9-0.8-1.2c-0.6-0.4-1.3-0.7-2.1-0.9
						c-0.9-0.3-1.8-0.4-2.8-0.6c-1-0.1-2-0.2-2.9-0.2c-1.1,0-2.2,0.2-3.4,0.5c-1.1,0.3-2.1,0.8-3,1.5c-0.9,0.7-1.6,1.5-2.1,2.6
						c-0.5,1.1-0.8,2.4-0.8,3.9c0,1.5,0.3,2.8,0.8,3.9c0.5,1.1,1.2,2,2.1,2.6s1.9,1.2,3,1.5c1.1,0.3,2.2,0.5,3.4,0.5
						c1.7,0,3.3-0.1,4.7-0.4c1.4-0.3,2.6-0.6,3.5-0.9v-3.9h-5.8c-0.4,0-0.7,0.1-1,0.3c-0.2,0.2-0.4,0.6-0.4,1.2h-0.8v-5.8h0.8
						c0.1,0.5,0.2,0.8,0.4,1c0.2,0.1,0.5,0.2,1,0.2h11.4v0.8c-0.6,0.1-1,0.2-1.1,0.3c-0.2,0.1-0.2,0.4-0.2,0.8v5.2
						c0,0.3,0.1,0.5,0.3,0.6c0.2,0.1,0.4,0.2,0.6,0.3v0.7c-1,0.7-2.1,1.3-3.2,1.7c-1.1,0.5-2.2,0.8-3.4,1.1
						c-1.1,0.3-2.3,0.4-3.4,0.5c-1.1,0.1-2.3,0.1-3.4,0.1c-2.1,0-4.1-0.3-5.8-0.8c-1.7-0.5-3.2-1.3-4.5-2.4c-1.2-1-2.2-2.3-2.9-3.8
						c-0.7-1.5-1-3.2-1-5.1s0.3-3.6,1-5.1c0.7-1.5,1.6-2.8,2.9-3.9c1.2-1.1,2.7-1.9,4.5-2.4c1.7-0.6,3.7-0.8,5.8-0.8
						c1.3,0,2.6,0.1,3.8,0.3c1.2,0.2,2.3,0.4,3.2,0.6c0.9,0.2,1.7,0.4,2.3,0.6c0.6,0.2,1,0.3,1.2,0.3c0.3,0,0.5-0.1,0.6-0.2
						c0.2-0.1,0.3-0.2,0.5-0.3l0.5,0.3L286.7,19.3z"/>
				</g>
				<g class="st2">
					<path class="st1" d="M304,12v0.8c-0.3,0-0.5,0-0.8,0.1c-0.2,0.1-0.4,0.3-0.4,0.6c0,0.2,0.2,0.6,0.7,1.3c0.4,0.7,1,1.5,1.5,2.3
						s1.2,1.8,1.8,2.7c0.6,0.9,1.2,1.7,1.5,2.3l5.3-7.3c0.2-0.4,0.4-0.7,0.6-0.9c0.2-0.2,0.2-0.4,0.2-0.6c0-0.2-0.1-0.3-0.4-0.4
						c-0.3-0.1-0.6-0.1-0.8-0.1V12h8v0.8c-0.2,0-0.5,0-0.7,0.1c-0.2,0-0.4,0.2-0.7,0.3c-0.2,0.2-0.5,0.4-0.7,0.7
						c-0.3,0.3-0.6,0.8-0.9,1.3l-7.8,11v8.1c0,0.5,0.3,0.8,1,0.8v0.8h-7.2v-0.8c0.3,0,0.5-0.1,0.7-0.2s0.3-0.3,0.3-0.6v-8.1
						l-8.8-12.3c-0.2-0.3-0.5-0.6-1-0.8c-0.4-0.2-0.8-0.3-1.1-0.3V12H304z"/>
				</g>
			</g>
		</g>
	</g>
</g>
</svg>
